<mxfile host="app.diagrams.net" modified="2024-04-23T03:07:46.231Z" agent="Mozilla/5.0 (Windows NT 10.0; Win64; x64) AppleWebKit/537.36 (KHTML, like Gecko) Chrome/124.0.0.0 Safari/537.36 Edg/124.0.0.0" version="24.2.8" etag="AYmcv56KuuLkukyMp_uP" type="github">
  <diagram name="Page-1" id="gKOr2HhBi7PFJjZMxn6u">
    <mxGraphModel>
      <root>
        <mxCell id="0" />
        <mxCell id="1" parent="0" />
      </root>
    </mxGraphModel>
  </diagram>
</mxfile>
